<?xml version="1.0" encoding="UTF-8"?>
<svg version="1.1" xmlns="http://www.w3.org/2000/svg" width="329" height="306">
<path d="M0 0 C33.33 0 66.66 0 101 0 C101 26.4 101 52.8 101 80 C129.38 80 157.76 80 187 80 C184.69 77.03 182.38 74.06 180 71 C180 70.34 180 69.68 180 69 C205.28677923 67.09723772 205.28677923 67.09723772 210.73828125 71.09765625 C213.23595627 73.92994802 215.1052162 76.73835272 217 80 C218.51626269 81.91621178 220.05672775 83.81361572 221.625 85.6875 C222.75384581 87.12198193 223.88040473 88.55828654 225 90 C221.9747829 94.99818477 218.27071957 99.14621042 214.31640625 103.4375 C211.86469725 105.97391151 211.86469725 105.97391151 210.078125 109.2890625 C208.14230298 111.63201127 207.13096535 111.97871335 204.07397461 112.47558594 C200.42730597 112.5916058 196.8329229 112.52209932 193.1875 112.375 C191.28967773 112.33439453 191.28967773 112.33439453 189.35351562 112.29296875 C186.2339453 112.22233697 183.11784159 112.12373646 180 112 C181.84899221 107.79774498 184.18404814 104.94233261 187 101 C151.69 101 116.38 101 80 101 C80 74.6 80 48.2 80 21 C53.6 21 27.2 21 0 21 C0 14.07 0 7.14 0 0 Z " fill="#C6D177" transform="translate(72,24)"/>
<path d="M0 0 C25.13018707 -2.07709504 25.13018707 -2.07709504 30.99609375 2.35546875 C33.8760215 5.23255353 35.90977892 8.52183888 38 12 C39.3763463 13.76536726 40.77000167 15.51750204 42.1875 17.25 C43.13064486 18.49574637 44.07063979 19.74393637 45 21 C43.68653049 22.81045797 42.35238384 24.60734079 40.95703125 26.35546875 C38.87535621 29.04077102 38.87535621 29.04077102 37.13671875 32.42578125 C34.68515962 36.51171314 32.35419011 39.83717645 28 42 C18.80082119 43.64701455 9.26020984 42.79739909 0 42 C1.98 39.03 3.96 36.06 6 33 C-22.05 32.67 -50.1 32.34 -79 32 C-79 58.07 -79 84.14 -79 111 C-112.33 111 -145.66 111 -180 111 C-180 104.4 -180 97.8 -180 91 C-153.6 91 -127.2 91 -100 91 C-100 64.6 -100 38.2 -100 11 C-64.69 10.67 -29.38 10.34 7 10 C4.69 7.36 2.38 4.72 0 2 C0 1.34 0 0.68 0 0 Z " fill="#C6D177" transform="translate(252,174)"/>
</svg>
