<?xml version="1.0" encoding="UTF-8"?>
<svg id="Layer_1" data-name="Layer 1" xmlns="http://www.w3.org/2000/svg" viewBox="50 455 980 180">
  <defs>
    <style>
      .cls-1 {
        fill: #c6cf77;
      }

      .cls-2 {
        fill: #70113f;
      }
    </style>
  </defs>
  <path class="cls-2" d="M141.67,603.05l-41.15-62.47-15.46,15.25v47.22h-28.62v-138.74h28.62v56.42l53.07-56.42h37.61l-54.74,54.75,55.99,83.99h-35.31Z"/>
  <path class="cls-2" d="M183.33,603.05v-102.8h25.49v12.33c8.98-13.79,19.44-15.04,30.5-15.04h3.56v27.79c-2.51-.42-5.02-.63-7.52-.63-16.72,0-24.86,8.36-24.86,24.86v53.49h-27.16Z"/>
  <path class="cls-2" d="M269.03,558.75c.83,15.46,9.6,25.49,22.98,25.49,8.78,0,16.51-4.38,18.39-11.49h27.99c-6.27,21.1-23.19,33.01-45.13,33.01-34.26,0-51.4-18.8-51.4-55.99,0-31.76,18.18-52.24,49.73-52.24s48.27,20.48,48.27,61.22h-70.82ZM311.86,541.62c-.42-15.25-10.45-22.57-21.1-22.57s-19.85,8.35-20.89,22.57h42Z"/>
  <path class="cls-2" d="M413.68,603.05c-.83-2.51-1.46-6.06-1.68-9.2-6.47,7.1-17.34,11.91-31.13,11.91-23.4,0-34.27-11.49-34.27-28.21,0-29.66,19.85-33.01,47.22-36.77,13.58-1.88,17.34-4.59,17.34-11.7,0-6.69-6.69-10.66-17.34-10.66-12.33,0-17.34,6.06-18.6,15.25h-25.28c.42-21.31,12.12-36.14,45.14-36.14s43.88,14.62,43.88,40.53v64.98h-25.28ZM411.8,552.69c-2.72,2.72-7.52,4.19-17.55,6.07-15.46,2.93-20.48,7.31-20.48,16.09,0,7.73,4.6,11.49,13.17,11.49,14,0,24.45-10.24,24.65-22.36l.21-11.29Z"/>
  <path class="cls-2" d="M509.22,535.35h25.28v29.25c0,21.73-12.54,41.16-41.58,41.16s-42-19.22-42-41.37v-91.94h26.74v27.79h56.83v19.22h-56.83v42.21c0,12.96,4.59,20.48,15.67,20.48s15.88-7.32,15.88-20.06v-26.74Z"/>
  <path class="cls-2" d="M570.49,558.75c.83,15.46,9.6,25.49,22.98,25.49,8.78,0,16.51-4.38,18.39-11.49h27.99c-6.27,21.1-23.19,33.01-45.13,33.01-34.26,0-51.4-18.8-51.4-55.99,0-31.76,18.18-52.24,49.73-52.24s48.27,20.48,48.27,61.22h-70.82ZM613.32,541.62c-.42-15.25-10.45-22.57-21.1-22.57s-19.85,8.35-20.89,22.57h42Z"/>
  <g>
    <path class="cls-2" d="M914.23,563.25c-5.85,31.55-27.58,52.44-59.76,52.44-36.36,0-64.15-24.86-64.15-72.5s24.86-75.64,64.56-75.64c34.69,0,56.63,22.15,59.34,50.15h-29.04c-3.97-15.67-16.3-25.07-30.09-25.07-24.03,0-35.31,18.6-35.31,48.89s11.28,48.9,33.85,48.9c17.13,0,27.58-9.82,31.55-27.16h29.04Z"/>
    <path class="cls-2" d="M918.47,559.49c0-32.6,20.27-54.12,52.87-54.12s52.23,21.31,52.23,54.12-20.26,54.11-52.23,54.11-52.87-22.14-52.87-54.11ZM996.21,559.49c0-20.9-8.36-31.13-24.86-31.13s-24.86,10.23-24.86,31.13,8.35,31.34,24.86,31.34,24.86-10.45,24.86-31.34Z"/>
  </g>
  <path class="cls-1" d="M663.86,587.05l19.78-16.96c-2.09-.84-3.72-1.57-4.87-2.2-4.82-1.88-8.69-5.18-11.62-9.89-2.93-4.71-4.4-10.21-4.4-16.49,0-7.01,1.46-13.17,4.4-18.45,2.93-5.29,6.93-9.34,12.01-12.17,5.08-2.83,10.86-4.24,17.35-4.24s11.98,1.23,16.8,3.69c4.81,2.46,8.56,5.81,11.23,10.05,2.67,4.24,4.11,8.97,4.32,14.21l2.83-1.88c2.93-2.1,5.83-3.72,8.72-4.87,2.88-1.15,6.1-1.73,9.66-1.73,4.5,0,8.71,1.18,12.64,3.53,3.93,2.35,7.09,5.86,9.5,10.52,2.41,4.66,3.61,10.23,3.61,16.72,0,9.32-2.1,16.51-6.28,21.59-4.19,5.08-9.58,8.35-16.17,9.81-3.14,1.05-6.49,1.57-10.05,1.57l-2.99-.16v-20.57c2.62,0,4.4-.11,5.34-.31,3.77-.1,6.67-1.15,8.72-3.14,2.04-1.99,3.06-4.76,3.06-8.32,0-3.25-.94-5.81-2.83-7.7-1.88-1.88-4.19-2.83-6.91-2.83-2.41,0-4.5.47-6.28,1.41-1.78.94-3.98,2.51-6.59,4.71l-70.98,56.37v-22.3ZM685.46,552.73c2.77,2.88,6.36,4.32,10.76,4.32,4.61,0,8.42-1.65,11.46-4.95,3.03-3.3,4.55-7.2,4.55-11.7,0-4.29-1.31-7.83-3.93-10.6-2.62-2.78-6.34-4.16-11.15-4.16-4.82,0-8.66,1.54-11.54,4.63-2.88,3.09-4.32,6.88-4.32,11.39,0,4.5,1.39,8.19,4.16,11.07Z"/>
</svg>