<?xml version="1.0" encoding="UTF-8"?>
<svg version="1.1" xmlns="http://www.w3.org/2000/svg" width="329" height="305">
<path d="M0 0 C2 1 2 1 3.01083374 3.50042725 C3.54566879 5.17035736 3.54566879 5.17035736 4.09130859 6.87402344 C4.29000046 7.48726974 4.48869232 8.10051605 4.69340515 8.73234558 C5.3523588 10.77242589 6.00041041 12.81580014 6.6484375 14.859375 C7.10618314 16.28432394 7.56457709 17.70906476 8.02359009 19.13360596 C9.23549082 22.90107472 10.43810474 26.67144775 11.63897705 30.44244385 C12.84720415 34.23043968 14.06479317 38.01542216 15.28125 41.80078125 C17.86892719 49.86255192 20.44811854 57.92681412 23 66 C23.39423157 67.23609009 23.78846313 68.47218018 24.19464111 69.74572754 C24.56176208 70.91148315 24.92888306 72.07723877 25.30712891 73.27832031 C25.7974913 74.82679657 25.7974913 74.82679657 26.29776001 76.40655518 C27 79 27 79 27 82 C27.66 82 28.32 82 29 82 C29.17450684 81.38249374 29.34901367 80.76498749 29.52880859 80.12876892 C31.23345104 74.25337642 33.24186603 68.63471205 35.625 63.00390625 C35.96869125 62.18007446 36.31238251 61.35624268 36.66648865 60.50744629 C37.77310737 57.85720017 38.88642679 55.20983052 40 52.5625 C41.53447287 48.89663535 43.06599133 45.22953857 44.59765625 41.5625 C44.97567886 40.65887222 45.35370148 39.75524445 45.74317932 38.82423401 C48.02840426 33.35467161 50.2824934 27.8739293 52.49609375 22.375 C52.75347321 21.73658676 53.01085266 21.09817352 53.27603149 20.44041443 C54.44901551 17.52801764 55.61596272 14.61337969 56.77539062 11.69555664 C57.17822266 10.69387451 57.58105469 9.69219238 57.99609375 8.66015625 C58.50934204 7.37057007 58.50934204 7.37057007 59.03295898 6.05493164 C60 4 60 4 62 2 C61.30138412 10.76338304 59.31392724 19.21845363 57.40234375 27.77734375 C57.04458006 29.39626383 56.68729314 31.01528933 56.33045959 32.63441467 C55.39573612 36.87097581 54.45579256 41.10635969 53.51434326 45.34143066 C52.00291401 52.14358196 50.49839054 58.94725897 48.99597359 65.75140572 C48.47063846 68.12614912 47.94238731 70.5002303 47.4138031 72.87425232 C47.09340676 74.32101506 46.77309468 75.76779646 46.45288086 77.21459961 C46.03104774 79.11247475 46.03104774 79.11247475 45.60069275 81.0486908 C44.93351829 83.82466639 44.93351829 83.82466639 45 86 C52.93257793 80.12092779 60.82136965 74.20873581 68.5 68 C73.58729154 63.8872417 78.74838907 59.90072445 84 56 C90.71758725 51.00927569 97.28125326 45.84958279 103.79296875 40.59375 C104.33872559 40.15417969 104.88448242 39.71460938 105.44677734 39.26171875 C106.90936931 38.07362141 108.35566958 36.86554847 109.80078125 35.65625 C112 34 112 34 114 34 C112.66000502 37.006818 111.20154709 38.99762609 108.8125 41.25 C106.36401744 43.62823921 104.03928947 46.03799459 101.8125 48.625 C98.62174248 52.32714303 95.32432818 55.91838038 92 59.5 C88.78825847 62.96272791 85.58896567 66.42649069 82.5 70 C78.94894944 74.1053609 75.25669227 78.07527118 71.56713867 82.05566406 C67.55136705 86.39135439 63.58619129 90.76857909 59.64453125 95.171875 C58.78136311 96.13140633 57.91262249 97.08737751 57 98 C66.17886639 97.46851044 75.20281382 96.54201268 84.30399895 95.22750664 C86.40251788 94.92454555 88.5018474 94.62784662 90.60145569 94.33253479 C95.80321794 93.59967145 101.00351041 92.85659622 106.20385742 92.11376953 C110.63168497 91.48169977 115.06004106 90.85359974 119.48916817 90.23069954 C121.54527531 89.93989722 123.60049996 89.64335659 125.65574646 89.34654236 C126.91137894 89.16958328 128.16701141 88.99262421 129.46069336 88.81030273 C130.55764023 88.65343491 131.6545871 88.49656708 132.78477478 88.33494568 C136.21146031 87.97797115 139.55724465 87.94359816 143 88 C139.7631785 90.157881 136.95321018 91.11238586 133.25292969 92.30664062 C132.57123215 92.52805222 131.88953461 92.74946381 131.18717957 92.97758484 C128.93350319 93.70829686 126.67774307 94.43233531 124.421875 95.15625 C122.85097433 95.66389403 121.28019558 96.17191549 119.70953369 96.68029785 C116.41516596 97.74557054 113.11984644 98.80782497 109.82373047 99.86767578 C105.61160278 101.22208475 101.40111246 102.58149465 97.19123459 103.94287872 C93.16448791 105.24484277 89.13697872 106.54444007 85.109375 107.84375 C84.34639854 108.09006668 83.58342209 108.33638336 82.79732513 108.59016418 C80.62017756 109.2925145 78.44250257 109.99320347 76.26464844 110.69335938 C75.02793396 111.09147827 73.79121948 111.48959717 72.51702881 111.89978027 C69.02467245 112.9922818 65.52253789 114.01025897 62 115 C64.14596819 117.14596819 65.59406689 117.78206461 68.38842773 118.88842773 C69.30300247 119.25352951 70.21757721 119.61863129 71.15986633 119.99479675 C72.6566114 120.58325127 72.6566114 120.58325127 74.18359375 121.18359375 C75.21900803 121.59551468 76.2544223 122.00743561 77.32121277 122.43183899 C80.69150056 123.77166387 84.06450106 125.10451705 87.4375 126.4375 C90.87259659 127.80149546 94.30695642 129.16733408 97.74127197 130.53329468 C100.00646174 131.43412594 102.27188269 132.33437609 104.53753662 133.23403931 C113.25149065 136.69549274 121.94656284 140.2005382 130.625 143.75 C131.7173999 144.19657959 132.8097998 144.64315918 133.93530273 145.10327148 C136.29081495 146.06736518 138.6458132 147.03267549 141 148 C141 148.66 141 149.32 141 150 C127.85852842 147.43412044 114.74450876 144.76656325 101.66796875 141.88671875 C99.88339767 141.49373093 99.88339767 141.49373093 98.06277466 141.09280396 C93.18343127 140.01601487 88.30488696 138.93567119 83.42700195 137.85229492 C79.79977146 137.04768861 76.17145299 136.24814888 72.54296875 135.44921875 C71.43898239 135.20241867 70.33499603 134.95561859 69.19755554 134.70133972 C68.1774086 134.47722916 67.15726166 134.25311859 66.10620117 134.0222168 C65.21341965 133.82411911 64.32063812 133.62602142 63.40080261 133.42192078 C60.74966173 132.88460737 60.74966173 132.88460737 57 133 C57.63164062 133.80179688 58.26328125 134.60359375 58.9140625 135.4296875 C69.13478408 148.41475999 79.2939989 161.44757927 89.34765625 174.5625 C91.42355349 177.26206085 93.52008229 179.9449439 95.62109375 182.625 C96.25208984 183.43130859 96.88308594 184.23761719 97.53320312 185.06835938 C98.77563323 186.65484705 100.02032253 188.23956882 101.26757812 189.82226562 C104.09371876 193.43397755 106.77205957 196.97533341 109 201 C105.60655558 199.51151188 103.21770033 197.5673138 100.5 195.0625 C99.6234375 194.25941406 98.746875 193.45632812 97.84375 192.62890625 C96.9053125 191.76136719 95.966875 190.89382812 95 190 C93.50799047 188.6301809 92.01449462 187.26199414 90.52099609 185.89379883 C89.50260531 184.96057363 88.48470558 184.02681231 87.46728516 183.0925293 C82.67573984 178.6937462 77.84244273 174.34257767 73 170 C64.13710623 162.05198559 64.13710623 162.05198559 59.9140625 158.1640625 C59.38796387 157.6798584 58.86186523 157.1956543 58.31982422 156.69677734 C56.83170737 155.32530293 55.34548556 153.95177314 53.859375 152.578125 C50.96497954 149.96842418 48.00936908 147.47516155 45 145 C45.53231047 154.18854046 46.4597808 163.22331505 47.77249336 172.33456421 C48.07534061 174.43702515 48.37207009 176.54027863 48.66746521 178.64379883 C49.29386325 183.09662186 49.92780594 187.5483531 50.5625 192 C51.30241886 197.19407976 52.03913978 202.38858435 52.76930046 207.58404541 C53.06057539 209.64621858 53.35687145 211.70762802 53.65345764 213.76904297 C53.83041672 215.02475098 54.00737579 216.28045898 54.18969727 217.57421875 C54.34656509 218.67338623 54.50343292 219.77255371 54.66505432 220.9050293 C54.99608051 223.96378302 55.05991175 226.92610651 55 230 C52.48247804 227.48247804 51.99733275 225.40476582 50.90869141 222.01245117 C50.70999954 221.39905884 50.51130768 220.7856665 50.30659485 220.15368652 C49.6490362 218.11862318 49.00026873 216.08086954 48.3515625 214.04296875 C47.89368922 212.6194899 47.43529695 211.19617788 46.97640991 209.77302551 C45.76579906 206.01339006 44.56271226 202.25138651 43.36102295 198.4888916 C42.39055451 195.45443743 41.41499522 192.42163291 40.43908119 189.38892651 C32.19911059 163.78199728 32.19911059 163.78199728 28.79989624 152.39936829 C28.22352334 150.07446409 28.22352334 150.07446409 27 149 C26.34535767 150.61781372 26.34535767 150.61781372 25.67749023 152.26831055 C15.46086223 177.51594142 5.23626613 202.76032461 -5 228 C-5.66 228 -6.32 228 -7 228 C-4.43412044 214.85852842 -1.76656325 201.74450876 1.11328125 188.66796875 C1.37527313 187.4782547 1.63726501 186.28854065 1.90719604 185.06277466 C2.98398513 180.18343127 4.06432881 175.30488696 5.14770508 170.42700195 C5.95231139 166.79977146 6.75185112 163.17145299 7.55078125 159.54296875 C7.92098137 157.88698921 7.92098137 157.88698921 8.29866028 156.19755554 C8.52277084 155.1774086 8.74688141 154.15726166 8.9777832 153.10620117 C9.17588089 152.21341965 9.37397858 151.32063812 9.57807922 150.40080261 C10.11539263 147.74966173 10.11539263 147.74966173 10 144 C9.319375 144.58265625 8.63875 145.1653125 7.9375 145.765625 C1.49983719 151.21024407 -5.08513527 156.36885704 -11.85668945 161.39111328 C-17.18577381 165.35614934 -22.38539098 169.46103391 -27.5546875 173.63134766 C-32.63420402 177.72482455 -37.79025506 181.70710201 -42.9765625 185.6640625 C-46.73715412 188.56953251 -50.41430068 191.57059926 -54.07421875 194.6015625 C-56 196 -56 196 -58 196 C-56.67143806 193.07356763 -55.20435823 190.9299237 -52.98828125 188.609375 C-52.39901855 187.98659668 -51.80975586 187.36381836 -51.20263672 186.72216797 C-50.5788916 186.07135254 -49.95514648 185.42053711 -49.3125 184.75 C-48.02904981 183.39407871 -46.74648604 182.03731778 -45.46484375 180.6796875 C-44.85624512 180.03612305 -44.24764648 179.39255859 -43.62060547 178.72949219 C-41.82686866 176.81523616 -40.08607083 174.86342645 -38.375 172.875 C-34.86451482 168.79716368 -31.20150074 164.86574736 -27.54467773 160.91967773 C-23.75943965 156.83195145 -20.02033885 152.70587308 -16.3046875 148.5546875 C-14.57052745 146.63241517 -12.82664116 144.7221493 -11.0703125 142.8203125 C-10.57088135 142.27898682 -10.0714502 141.73766113 -9.55688477 141.17993164 C-8.58257691 140.12539977 -7.60658117 139.07242413 -6.62866211 138.02124023 C-4.53615304 135.75533772 -2.71636162 133.57454243 -1 131 C-1.94184143 131.14837311 -1.94184143 131.14837311 -2.90270996 131.29974365 C-19.78891368 133.95072793 -36.69719487 136.39926158 -53.63183594 138.71972656 C-56.92019339 139.17051629 -60.20821307 139.62362641 -63.49607086 140.07803726 C-66.67426992 140.51697759 -69.85276651 140.95374974 -73.03125 141.390625 C-74.20804321 141.55306702 -75.38483643 141.71550903 -76.59729004 141.88287354 C-78.21298889 142.10375641 -78.21298889 142.10375641 -79.86132812 142.32910156 C-80.80882935 142.45915588 -81.75633057 142.58921021 -82.73254395 142.72320557 C-85 143 -85 143 -87 143 C-87 142.34 -87 141.68 -87 141 C-79.68746582 138.6431226 -72.37478497 136.28670082 -65.06193352 133.93080807 C-61.66361721 132.83599911 -58.26534536 131.74105263 -54.8671875 130.64575195 C-38.5881667 125.39878773 -22.30365376 120.1700503 -6 115 C-19.11093914 109.28463296 -32.30577065 103.80446236 -45.5625 98.4375 C-46.7678389 97.9490863 -46.7678389 97.9490863 -47.99752808 97.45080566 C-55.58359951 94.37810695 -63.17198909 91.31344669 -70.79296875 88.328125 C-72.21210571 87.77040405 -72.21210571 87.77040405 -73.65991211 87.20141602 C-75.33141977 86.54708749 -77.00526793 85.8986921 -78.68188477 85.25756836 C-83.88989004 83.22021992 -83.88989004 83.22021992 -85 81 C-77.02557695 81.63104509 -69.34537709 83.3480998 -61.55969238 85.09943008 C-59.14855498 85.6415692 -56.73611135 86.17750812 -54.32324219 86.71188354 C-48.34199721 88.03773516 -42.36286603 89.37300607 -36.38409424 90.70996094 C-31.30844394 91.84480946 -26.23183791 92.97515951 -21.15371704 94.09890366 C-18.77225016 94.62787034 -16.39236917 95.16360793 -14.01245117 95.69949341 C-12.56567134 96.02023321 -11.11881672 96.34063586 -9.671875 96.66064453 C-7.77066895 97.08580856 -7.77066895 97.08580856 -5.83105469 97.51956177 C-4.89680664 97.67810638 -3.96255859 97.836651 -3 98 C-2.67 97.67 -2.34 97.34 -2 97 C-7.55825296 89.75121848 -13.14033896 82.52156781 -18.75 75.3125 C-19.34111572 74.55283936 -19.93223145 73.79317871 -20.54125977 73.01049805 C-23.5428478 69.15419863 -26.54616749 65.29925477 -29.55078125 61.4453125 C-37.4247979 51.34043356 -45.23551205 41.1892782 -53 31 C-52.67 30.34 -52.34 29.68 -52 29 C-51.154375 29.78503906 -50.30875 30.57007812 -49.4375 31.37890625 C-42.29427964 38.02323224 -42.29427964 38.02323224 -35 44.5 C-30.88639854 48.05817847 -26.90904725 51.7584212 -22.92016602 55.45483398 C-18.82692272 59.24526836 -14.69447442 62.98866298 -10.5390625 66.7109375 C-6.64960853 70.21742985 -2.80436422 73.77161991 1.04296875 77.32421875 C3.2337667 79.3066449 5.43939716 81.2485695 7.68481445 83.16723633 C8.30781937 83.69996658 8.93082428 84.23269684 9.57270813 84.78157043 C10.04371445 85.18365219 10.51472076 85.58573395 11 86 C8.86821009 67.50310674 6.39823764 49.06334313 3.8125 30.625 C3.26053125 26.68692223 2.70959853 22.74870705 2.16105652 18.81015015 C1.82357127 16.38704774 1.48422498 13.9642036 1.14277649 11.54165649 C0.91705208 9.9212294 0.91705208 9.9212294 0.68676758 8.26806641 C0.55369705 7.31976959 0.42062653 6.37147278 0.28352356 5.3944397 C0 3 0 3 0 0 Z " fill="#70113F" transform="translate(137,37)"/>
</svg>
